<svg viewBox="0 0 600 400" xmlns="http://www.w3.org/2000/svg">
<g transform="translate(72, 364)">
<g>
<rect fill="burlywood" height="54.4" stroke="black" width="15.999999999999945" x="0" y="-54.4"/>
<rect fill="burlywood" height="13.6" stroke="black" width="16.000000000000064" x="15.999999999999945" y="-13.6"/>
<rect fill="burlywood" height="54.4" stroke="black" width="15.999999999999943" x="32.00000000000001" y="-54.4"/>
<rect fill="burlywood" height="27.2" stroke="black" width="16.000000000000064" x="47.99999999999995" y="-27.2"/>
<rect fill="burlywood" height="149.6" stroke="black" width="15.999999999999957" x="64.00000000000001" y="-149.6"/>
<rect fill="burlywood" height="136" stroke="black" width="16.000000000000057" x="79.99999999999997" y="-136"/>
<rect fill="burlywood" height="122.4" stroke="black" width="15.999999999999943" x="96.00000000000003" y="-122.4"/>
<rect fill="burlywood" height="54.4" stroke="black" width="16.000000000000057" x="111.99999999999997" y="-54.4"/>
<rect fill="burlywood" height="13.6" stroke="black" width="15.999999999999943" x="128.00000000000003" y="-13.6"/>
<rect fill="burlywood" height="176.8" stroke="black" width="15.999999999999972" x="143.99999999999997" y="-176.8"/>
<rect fill="burlywood" height="81.6" stroke="black" width="16.000000000000057" x="159.99999999999994" y="-81.6"/>
<rect fill="burlywood" height="108.8" stroke="black" width="16.000000000000057" x="176" y="-108.8"/>
<rect fill="burlywood" height="95.2" stroke="black" width="15.999999999999943" x="192.00000000000006" y="-95.2"/>
<rect fill="burlywood" height="40.8" stroke="black" width="15.999999999999943" x="208" y="-40.8"/>
<rect fill="burlywood" height="163.2" stroke="black" width="16.000000000000057" x="223.99999999999994" y="-163.2"/>
<rect fill="burlywood" height="54.4" stroke="black" width="16.000000000000057" x="240" y="-54.4"/>
<rect fill="burlywood" height="122.4" stroke="black" width="15.999999999999943" x="256.00000000000006" y="-122.4"/>
<rect fill="burlywood" height="95.2" stroke="black" width="15.999999999999943" x="272" y="-95.2"/>
<rect fill="burlywood" height="68" stroke="black" width="16.000000000000057" x="287.99999999999994" y="-68"/>
<rect fill="burlywood" height="136" stroke="black" width="15.999999999999943" x="304" y="-136"/>
<rect fill="burlywood" height="40.8" stroke="black" width="15.999999999999943" x="319.99999999999994" y="-40.8"/>
<rect fill="burlywood" height="54.4" stroke="black" width="16.000000000000114" x="335.9999999999999" y="-54.4"/>
<rect fill="burlywood" height="13.6" stroke="black" width="16" x="352" y="-13.6"/>
<rect fill="burlywood" height="13.6" stroke="black" width="16.000000000000114" x="368" y="-13.6"/>
<rect fill="burlywood" height="40.8" stroke="black" width="15.999999999999943" x="384.0000000000001" y="-40.8"/>
<rect fill="burlywood" height="27.2" stroke="black" width="15.999999999999943" x="400.00000000000006" y="-27.2"/>
<rect fill="burlywood" height="0" stroke="black" width="16.000000000000057" x="416" y="-0"/>
<rect fill="burlywood" height="13.6" stroke="black" width="15.999999999999943" x="432.00000000000006" y="-13.6"/>
<rect fill="burlywood" height="54.4" stroke="black" width="15.999999999999943" x="448" y="-54.4"/>
<rect fill="burlywood" height="13.6" stroke="black" width="16.000000000000057" x="463.99999999999994" y="-13.6"/>
</g>
<g>
<g>
<rect fill="FFFFFF" height="10" width="10" x="101.66663134539475" y="-5"/>
<rect fill="FFFFFF" height="10" width="10" x="74.99998940361843" y="-5"/>
<rect fill="FFFFFF" height="10" width="10" x="48.33328388355265" y="-5"/>
<rect fill="FFFFFF" height="10" width="10" x="34.99996291266449" y="-5"/>
<rect fill="FFFFFF" height="10" width="10" x="88.3333103745066" y="-5"/>
<rect fill="FFFFFF" height="10" width="10" x="141.6666578363487" y="-5"/>
<rect fill="FFFFFF" height="10" width="10" x="34.99996291266449" y="-5"/>
<rect fill="FFFFFF" height="10" width="10" x="88.3333103745066" y="-5"/>
<rect fill="FFFFFF" height="10" width="10" x="8.333320970888163" y="-5"/>
<rect fill="FFFFFF" height="10" width="10" x="74.99998940361843" y="-5"/>
<rect fill="FFFFFF" height="10" width="10" x="141.6666578363487" y="-5"/>
<rect fill="FFFFFF" height="10" width="10" x="61.66666843273026" y="-5"/>
<rect fill="FFFFFF" height="10" width="10" x="61.66666843273026" y="-5"/>
<rect fill="FFFFFF" height="10" width="10" x="-5" y="-5"/>
<rect fill="FFFFFF" height="10" width="10" x="195.00000529819079" y="-5"/>
<rect fill="FFFFFF" height="10" width="10" x="181.6666207490132" y="-5"/>
<rect fill="FFFFFF" height="10" width="10" x="141.6666578363487" y="-5"/>
<rect fill="FFFFFF" height="10" width="10" x="101.66663134539475" y="-5"/>
<rect fill="FFFFFF" height="10" width="10" x="181.6666207490132" y="-5"/>
<rect fill="FFFFFF" height="10" width="10" x="101.66663134539475" y="-5"/>
<rect fill="FFFFFF" height="10" width="10" x="141.6666578363487" y="-5"/>
<rect fill="FFFFFF" height="10" width="10" x="101.66663134539475" y="-5"/>
<rect fill="FFFFFF" height="10" width="10" x="34.99996291266449" y="-5"/>
<rect fill="FFFFFF" height="10" width="10" x="101.66663134539475" y="-5"/>
<rect fill="FFFFFF" height="10" width="10" x="61.66666843273026" y="-5"/>
<rect fill="FFFFFF" height="10" width="10" x="88.3333103745066" y="-5"/>
<rect fill="FFFFFF" height="10" width="10" x="88.3333103745066" y="-5"/>
<rect fill="FFFFFF" height="10" width="10" x="114.99995231628291" y="-5"/>
<rect fill="FFFFFF" height="10" width="10" x="114.99995231628291" y="-5"/>
<rect fill="FFFFFF" height="10" width="10" x="48.33328388355265" y="-5"/>
<rect fill="FFFFFF" height="10" width="10" x="61.66666843273026" y="-5"/>
<rect fill="FFFFFF" height="10" width="10" x="141.6666578363487" y="-5"/>
<rect fill="FFFFFF" height="10" width="10" x="114.99995231628291" y="-5"/>
<rect fill="FFFFFF" height="10" width="10" x="154.99997880723686" y="-5"/>
<rect fill="FFFFFF" height="10" width="10" x="74.99998940361843" y="-5"/>
<rect fill="FFFFFF" height="10" width="10" x="88.3333103745066" y="-5"/>
<rect fill="FFFFFF" height="10" width="10" x="154.99997880723686" y="-5"/>
<rect fill="FFFFFF" height="10" width="10" x="74.99998940361843" y="-5"/>
<rect fill="FFFFFF" height="10" width="10" x="8.333320970888163" y="-5"/>
<rect fill="FFFFFF" height="10" width="10" x="101.66663134539475" y="-5"/>
<rect fill="FFFFFF" height="10" width="10" x="88.3333103745066" y="-5"/>
<rect fill="FFFFFF" height="10" width="10" x="21.666641941776327" y="-5"/>
<rect fill="FFFFFF" height="10" width="10" x="8.333320970888163" y="-5"/>
<rect fill="FFFFFF" height="10" width="10" x="88.3333103745066" y="-5"/>
<rect fill="FFFFFF" height="10" width="10" x="101.66663134539475" y="-5"/>
<rect fill="FFFFFF" height="10" width="10" x="61.66666843273026" y="-5"/>
<rect fill="FFFFFF" height="10" width="10" x="101.66663134539475" y="-5"/>
<rect fill="FFFFFF" height="10" width="10" x="34.99996291266449" y="-5"/>
<rect fill="FFFFFF" height="10" width="10" x="128.33333686546052" y="-5"/>
<rect fill="FFFFFF" height="10" width="10" x="88.3333103745066" y="-5"/>
<rect fill="FFFFFF" height="10" width="10" x="354.99998410542764" y="-5"/>
<rect fill="FFFFFF" height="10" width="10" x="274.9999947018092" y="-5"/>
<rect fill="FFFFFF" height="10" width="10" x="341.6666631345395" y="-5"/>
<rect fill="FFFFFF" height="10" width="10" x="154.99997880723686" y="-5"/>
<rect fill="FFFFFF" height="10" width="10" x="288.3333156726974" y="-5"/>
<rect fill="FFFFFF" height="10" width="10" x="181.6666207490132" y="-5"/>
<rect fill="FFFFFF" height="10" width="10" x="261.66667373092105" y="-5"/>
<rect fill="FFFFFF" height="10" width="10" x="74.99998940361843" y="-5"/>
<rect fill="FFFFFF" height="10" width="10" x="301.66663664358555" y="-5"/>
<rect fill="FFFFFF" height="10" width="10" x="114.99995231628291" y="-5"/>
<rect fill="FFFFFF" height="10" width="10" x="88.3333103745066" y="-5"/>
<rect fill="FFFFFF" height="10" width="10" x="208.33332626907895" y="-5"/>
<rect fill="FFFFFF" height="10" width="10" x="221.66664723996712" y="-5"/>
<rect fill="FFFFFF" height="10" width="10" x="234.9999682108553" y="-5"/>
<rect fill="FFFFFF" height="10" width="10" x="168.33329977812502" y="-5"/>
<rect fill="FFFFFF" height="10" width="10" x="314.9999576144737" y="-5"/>
<rect fill="FFFFFF" height="10" width="10" x="168.33329977812502" y="-5"/>
<rect fill="FFFFFF" height="10" width="10" x="195.00000529819079" y="-5"/>
<rect fill="FFFFFF" height="10" width="10" x="248.33328918174345" y="-5"/>
<rect fill="FFFFFF" height="10" width="10" x="168.33329977812502" y="-5"/>
<rect fill="FFFFFF" height="10" width="10" x="208.33332626907895" y="-5"/>
<rect fill="FFFFFF" height="10" width="10" x="234.9999682108553" y="-5"/>
<rect fill="FFFFFF" height="10" width="10" x="261.66667373092105" y="-5"/>
<rect fill="FFFFFF" height="10" width="10" x="234.9999682108553" y="-5"/>
<rect fill="FFFFFF" height="10" width="10" x="274.9999947018092" y="-5"/>
<rect fill="FFFFFF" height="10" width="10" x="301.66663664358555" y="-5"/>
<rect fill="FFFFFF" height="10" width="10" x="328.3333421636513" y="-5"/>
<rect fill="FFFFFF" height="10" width="10" x="314.9999576144737" y="-5"/>
<rect fill="FFFFFF" height="10" width="10" x="221.66664723996712" y="-5"/>
<rect fill="FFFFFF" height="10" width="10" x="181.6666207490132" y="-5"/>
<rect fill="FFFFFF" height="10" width="10" x="154.99997880723686" y="-5"/>
<rect fill="FFFFFF" height="10" width="10" x="154.99997880723686" y="-5"/>
<rect fill="FFFFFF" height="10" width="10" x="195.00000529819079" y="-5"/>
<rect fill="FFFFFF" height="10" width="10" x="221.66664723996712" y="-5"/>
<rect fill="FFFFFF" height="10" width="10" x="141.6666578363487" y="-5"/>
<rect fill="FFFFFF" height="10" width="10" x="221.66664723996712" y="-5"/>
<rect fill="FFFFFF" height="10" width="10" x="314.9999576144737" y="-5"/>
<rect fill="FFFFFF" height="10" width="10" x="261.66667373092105" y="-5"/>
<rect fill="FFFFFF" height="10" width="10" x="168.33329977812502" y="-5"/>
<rect fill="FFFFFF" height="10" width="10" x="154.99997880723686" y="-5"/>
<rect fill="FFFFFF" height="10" width="10" x="154.99997880723686" y="-5"/>
<rect fill="FFFFFF" height="10" width="10" x="234.9999682108553" y="-5"/>
<rect fill="FFFFFF" height="10" width="10" x="195.00000529819079" y="-5"/>
<rect fill="FFFFFF" height="10" width="10" x="88.3333103745066" y="-5"/>
<rect fill="FFFFFF" height="10" width="10" x="168.33329977812502" y="-5"/>
<rect fill="FFFFFF" height="10" width="10" x="181.6666207490132" y="-5"/>
<rect fill="FFFFFF" height="10" width="10" x="181.6666207490132" y="-5"/>
<rect fill="FFFFFF" height="10" width="10" x="248.33328918174345" y="-5"/>
<rect fill="FFFFFF" height="10" width="10" x="101.66663134539475" y="-5"/>
<rect fill="FFFFFF" height="10" width="10" x="181.6666207490132" y="-5"/>
<rect fill="FFFFFF" height="10" width="10" x="261.66667373092105" y="-5"/>
<rect fill="FFFFFF" height="10" width="10" x="195.00000529819079" y="-5"/>
<rect fill="FFFFFF" height="10" width="10" x="368.3333050763158" y="-5"/>
<rect fill="FFFFFF" height="10" width="10" x="261.66667373092105" y="-5"/>
<rect fill="FFFFFF" height="10" width="10" x="288.3333156726974" y="-5"/>
<rect fill="FFFFFF" height="10" width="10" x="434.9999735090461" y="-5"/>
<rect fill="FFFFFF" height="10" width="10" x="74.99998940361843" y="-5"/>
<rect fill="FFFFFF" height="10" width="10" x="395.00001059638157" y="-5"/>
<rect fill="FFFFFF" height="10" width="10" x="314.9999576144737" y="-5"/>
<rect fill="FFFFFF" height="10" width="10" x="381.666626047204" y="-5"/>
<rect fill="FFFFFF" height="10" width="10" x="288.3333156726974" y="-5"/>
<rect fill="FFFFFF" height="10" width="10" x="274.9999947018092" y="-5"/>
<rect fill="FFFFFF" height="10" width="10" x="328.3333421636513" y="-5"/>
<rect fill="FFFFFF" height="10" width="10" x="181.6666207490132" y="-5"/>
<rect fill="FFFFFF" height="10" width="10" x="195.00000529819079" y="-5"/>
<rect fill="FFFFFF" height="10" width="10" x="274.9999947018092" y="-5"/>
<rect fill="FFFFFF" height="10" width="10" x="288.3333156726974" y="-5"/>
<rect fill="FFFFFF" height="10" width="10" x="448.33329447993424" y="-5"/>
<rect fill="FFFFFF" height="10" width="10" x="448.33329447993424" y="-5"/>
<rect fill="FFFFFF" height="10" width="10" x="221.66664723996712" y="-5"/>
<rect fill="FFFFFF" height="10" width="10" x="341.6666631345395" y="-5"/>
<rect fill="FFFFFF" height="10" width="10" x="168.33329977812502" y="-5"/>
<rect fill="FFFFFF" height="10" width="10" x="448.33329447993424" y="-5"/>
<rect fill="FFFFFF" height="10" width="10" x="261.66667373092105" y="-5"/>
<rect fill="FFFFFF" height="10" width="10" x="314.9999576144737" y="-5"/>
<rect fill="FFFFFF" height="10" width="10" x="381.666626047204" y="-5"/>
<rect fill="FFFFFF" height="10" width="10" x="248.33328918174345" y="-5"/>
<rect fill="FFFFFF" height="10" width="10" x="234.9999682108553" y="-5"/>
<rect fill="FFFFFF" height="10" width="10" x="274.9999947018092" y="-5"/>
<rect fill="FFFFFF" height="10" width="10" x="381.666626047204" y="-5"/>
<rect fill="FFFFFF" height="10" width="10" x="408.33333156726974" y="-5"/>
<rect fill="FFFFFF" height="10" width="10" x="475" y="-5"/>
<rect fill="FFFFFF" height="10" width="10" x="274.9999947018092" y="-5"/>
<rect fill="FFFFFF" height="10" width="10" x="261.66667373092105" y="-5"/>
<rect fill="FFFFFF" height="10" width="10" x="234.9999682108553" y="-5"/>
<rect fill="FFFFFF" height="10" width="10" x="448.33329447993424" y="-5"/>
<rect fill="FFFFFF" height="10" width="10" x="261.66667373092105" y="-5"/>
<rect fill="FFFFFF" height="10" width="10" x="274.9999947018092" y="-5"/>
<rect fill="FFFFFF" height="10" width="10" x="221.66664723996712" y="-5"/>
<rect fill="FFFFFF" height="10" width="10" x="341.6666631345395" y="-5"/>
<rect fill="FFFFFF" height="10" width="10" x="314.9999576144737" y="-5"/>
<rect fill="FFFFFF" height="10" width="10" x="341.6666631345395" y="-5"/>
<rect fill="FFFFFF" height="10" width="10" x="195.00000529819079" y="-5"/>
<rect fill="FFFFFF" height="10" width="10" x="328.3333421636513" y="-5"/>
<rect fill="FFFFFF" height="10" width="10" x="314.9999576144737" y="-5"/>
<rect fill="FFFFFF" height="10" width="10" x="314.9999576144737" y="-5"/>
<rect fill="FFFFFF" height="10" width="10" x="261.66667373092105" y="-5"/>
<rect fill="FFFFFF" height="10" width="10" x="288.3333156726974" y="-5"/>
<rect fill="FFFFFF" height="10" width="10" x="248.33328918174345" y="-5"/>
<rect fill="FFFFFF" height="10" width="10" x="208.33332626907895" y="-5"/>
</g>
</g>
<g>
<g>
<line stroke="black" stroke-width="1" x1="-0.00002543131580155122" x2="-0.00002543131580155122" y1="0" y2="10"/>
<line stroke="black" stroke-width="1" x1="133.33331143414472" x2="133.33331143414472" y1="0" y2="10"/>
<line stroke="black" stroke-width="1" x1="266.66664829960524" x2="266.66664829960524" y1="0" y2="10"/>
<line stroke="black" stroke-width="1" x1="399.9999851650658" x2="399.9999851650658" y1="0" y2="10"/>
</g>
<line stroke="black" stroke-width="1" x1="0" x2="480" y1="0" y2="0"/>
<g>
<text font-size="12" text-anchor="middle" x="-0.00002543131580155122" y="20">
4.3
</text>
<text font-size="12" text-anchor="middle" x="133.33331143414472" y="20">
5.3
</text>
<text font-size="12" text-anchor="middle" x="266.66664829960524" y="20">
6.3
</text>
<text font-size="12" text-anchor="middle" x="399.9999851650658" y="20">
7.3
</text>
</g>
<text font-size="12" text-anchor="middle" x="240" y="30">
   
</text>
</g>
<g>
<g>
<line stroke="black" stroke-width="1" x1="0" x2="-10" y1="-0" y2="-0"/>
<line stroke="black" stroke-width="1" x1="0" x2="-10" y1="-68" y2="-68"/>
<line stroke="black" stroke-width="1" x1="0" x2="-10" y1="-136" y2="-136"/>
<line stroke="black" stroke-width="1" x1="0" x2="-10" y1="-204" y2="-204"/>
<line stroke="black" stroke-width="1" x1="0" x2="-10" y1="-272" y2="-272"/>
<line stroke="black" stroke-width="1" x1="0" x2="-10" y1="-340" y2="-340"/>
</g>
<line stroke="black" stroke-width="1" x1="0" x2="0" y1="0" y2="-340"/>
<g>
<text dominant-baseline="middle" font-size="12" text-anchor="end" x="-15" y="-0">
0
</text>
<text dominant-baseline="middle" font-size="12" text-anchor="end" x="-15" y="-68">
5
</text>
<text dominant-baseline="middle" font-size="12" text-anchor="end" x="-15" y="-136">
10
</text>
<text dominant-baseline="middle" font-size="12" text-anchor="end" x="-15" y="-204">
15
</text>
<text dominant-baseline="middle" font-size="12" text-anchor="end" x="-15" y="-272">
20
</text>
<text dominant-baseline="middle" font-size="12" text-anchor="end" x="-15" y="-340">
25
</text>
</g>
<text font-size="12" text-anchor="middle" transform="rotate(-90 -24 -170)" x="-24" y="-182">
   
</text>
</g>
</g>
</svg>